<svg width="30" height="30" viewBox="0 0 30 30" fill="none" xmlns="http://www.w3.org/2000/svg">
<path fill-rule="evenodd" clip-rule="evenodd" d="M12.7723 12.8839L15.0765 9.41367L17.3807 12.8839C16.691 13.2377 15.9074 13.4376 15.0765 13.4376C14.2455 13.4376 13.4619 13.2377 12.7723 12.8839Z" fill="#9AA3AD"/>
<path fill-rule="evenodd" clip-rule="evenodd" d="M12.7723 17.2836L15.0765 20.7539L17.3807 17.2836C16.6911 16.9299 15.9074 16.7299 15.0765 16.7299C14.2455 16.7299 13.4619 16.9299 12.7723 17.2836Z" fill="#9AA3AD"/>
<path fill-rule="evenodd" clip-rule="evenodd" d="M12.8477 17.3581C13.2061 16.6774 13.4086 15.9039 13.4086 15.0838C13.4086 14.2636 13.2061 13.4902 12.8476 12.8095L9.33176 15.0838L12.8477 17.3581Z" fill="#9AA3AD"/>
<path fill-rule="evenodd" clip-rule="evenodd" d="M17.3053 17.358C16.9468 16.6774 16.7443 15.9039 16.7443 15.0838C16.7443 14.2636 16.9468 13.4902 17.3053 12.8095L20.8212 15.0838L17.3053 17.358Z" fill="#9AA3AD"/>
<path d="M6.57659 7.67168C14.611 4.20635 18.7668 9.47359 19.875 12.5231C20.2905 7.81022 14.0569 -1.06101 6.57659 1.43401C1.79296 3.02957 1.90603 9.68614 6.57659 7.67168Z" fill="#9AA3AD" stroke="#9AA3AD"/>
<path d="M23.5763 22.4959C15.5419 25.9612 11.3862 20.694 10.278 17.6445C9.86241 22.3573 16.096 31.2286 23.5763 28.7335C28.36 27.138 28.2469 20.4814 23.5763 22.4959Z" fill="#9AA3AD" stroke="#9AA3AD"/>
<path d="M7.93748 23.4733C4.42654 15.5432 9.76309 11.4414 12.8527 10.3476C8.07784 9.93741 -0.910118 16.0901 1.61773 23.4733C3.23428 28.1948 9.97844 28.0832 7.93748 23.4733Z" fill="#9AA3AD" stroke="#9AA3AD"/>
<path d="M22.5861 6.69428C26.097 14.6244 20.7605 18.7261 17.6708 19.8199C22.4457 20.2301 31.4337 14.0775 28.9058 6.69428C27.2893 1.97277 20.5451 2.08438 22.5861 6.69428Z" fill="#9AA3AD" stroke="#9AA3AD"/>
</svg>
