<svg width="50" height="50" viewBox="0 0 50 50" fill="none" xmlns="http://www.w3.org/2000/svg">
<path fill-rule="evenodd" clip-rule="evenodd" d="M20.5809 21.0951L24.6711 14.9351L28.7612 21.0951C27.5371 21.7231 26.1461 22.078 24.6711 22.078C23.1961 22.078 21.805 21.7231 20.5809 21.0951Z" fill="url(#paint0_linear_5_366)"/>
<path fill-rule="evenodd" clip-rule="evenodd" d="M20.5809 28.905L24.671 35.0649L28.7612 28.9049C27.5371 28.2769 26.1461 27.9221 24.6711 27.9221C23.1961 27.9221 21.8051 28.277 20.5809 28.905Z" fill="url(#paint1_linear_5_366)"/>
<path fill-rule="evenodd" clip-rule="evenodd" d="M20.7147 29.037C21.3509 27.8288 21.7105 26.4559 21.7105 25.0001C21.7105 23.5442 21.3509 22.1712 20.7147 20.963L14.4737 25L20.7147 29.037Z" fill="url(#paint2_linear_5_366)"/>
<path fill-rule="evenodd" clip-rule="evenodd" d="M28.6275 29.037C27.9912 27.8287 27.6317 26.4557 27.6317 24.9999C27.6317 23.5441 27.9912 22.1712 28.6274 20.963L34.8683 25L28.6275 29.037Z" fill="url(#paint3_linear_5_366)"/>
<path d="M9.58299 11.8429C23.8448 5.69157 31.2217 15.0414 33.1888 20.4545C33.9265 12.0888 22.8613 -3.65848 9.58299 0.770415C1.0916 3.60267 1.29231 15.4187 9.58299 11.8429Z" fill="url(#paint4_linear_5_366)"/>
<path d="M39.7592 38.1571C25.4973 44.3084 18.1205 34.9586 16.1533 29.5455C15.4157 37.9112 26.4809 53.6585 39.7592 49.2296C48.2506 46.3973 48.0498 34.5813 39.7592 38.1571Z" fill="url(#paint5_linear_5_366)"/>
<path d="M11.9987 39.8922C5.76645 25.8155 15.2393 18.5345 20.7237 16.5929C12.2478 15.8648 -3.70662 26.7864 0.780551 39.8922C3.65008 48.2733 15.6216 48.0752 11.9987 39.8922Z" fill="url(#paint6_linear_5_366)"/>
<path d="M38.0013 10.1078C44.2335 24.1845 34.7607 31.4655 29.2763 33.4071C37.7522 34.1352 53.7066 23.2136 49.2194 10.1078C46.3499 1.72671 34.3784 1.92482 38.0013 10.1078Z" fill="url(#paint7_linear_5_366)"/>
<defs>
<linearGradient id="paint0_linear_5_366" x1="24.6711" y1="14.9351" x2="24.6711" y2="22.078" gradientUnits="userSpaceOnUse">
<stop stop-color="#379BFB"/>
<stop offset="1" stop-color="#1AFFC1"/>
</linearGradient>
<linearGradient id="paint1_linear_5_366" x1="24.6711" y1="27.9221" x2="24.6711" y2="35.0649" gradientUnits="userSpaceOnUse">
<stop stop-color="#379BFB"/>
<stop offset="1" stop-color="#1AFFC1"/>
</linearGradient>
<linearGradient id="paint2_linear_5_366" x1="18.0921" y1="20.963" x2="18.0921" y2="29.0371" gradientUnits="userSpaceOnUse">
<stop stop-color="#379BFB"/>
<stop offset="1" stop-color="#1AFFC1"/>
</linearGradient>
<linearGradient id="paint3_linear_5_366" x1="31.2501" y1="20.963" x2="31.2501" y2="29.0371" gradientUnits="userSpaceOnUse">
<stop stop-color="#379BFB"/>
<stop offset="1" stop-color="#1AFFC1"/>
</linearGradient>
<linearGradient id="paint4_linear_5_366" x1="18.2566" y1="0" x2="18.2566" y2="20.4545" gradientUnits="userSpaceOnUse">
<stop stop-color="#379BFB"/>
<stop offset="1" stop-color="#1AFFC1"/>
</linearGradient>
<linearGradient id="paint5_linear_5_366" x1="31.0856" y1="50" x2="31.0856" y2="29.5455" gradientUnits="userSpaceOnUse">
<stop stop-color="#379BFB"/>
<stop offset="1" stop-color="#1AFFC1"/>
</linearGradient>
<linearGradient id="paint6_linear_5_366" x1="0" y1="31.3312" x2="20.7237" y2="31.3312" gradientUnits="userSpaceOnUse">
<stop stop-color="#379BFB"/>
<stop offset="1" stop-color="#1AFFC1"/>
</linearGradient>
<linearGradient id="paint7_linear_5_366" x1="50" y1="18.6688" x2="29.2763" y2="18.6688" gradientUnits="userSpaceOnUse">
<stop stop-color="#379BFB"/>
<stop offset="1" stop-color="#1AFFC1"/>
</linearGradient>
</defs>
</svg>
